<svg xmlns="http://www.w3.org/2000/svg" width="19.767" height="11.513" viewBox="0 0 19.767 11.513"><defs><clipPath id="a"><path data-name="Прямоугольник 78" fill="#fc5b62" d="M0 0h11.513v19.767H0z"/></clipPath></defs><g data-name="Сгруппировать 1698"><g data-name="Сгруппировать 346" transform="rotate(90 9.883 9.884)" clip-path="url(#a)"><path data-name="Контур 108" d="M11.219 5.259 6.505.309a.971.971 0 0 0-1.42 0L.294 5.34a1.092 1.092 0 0 0 0 1.491.971.971 0 0 0 1.42 0l3.067-3.22a2.837 2.837 0 0 0-.028.394v14.066c0 .937.45 1.7 1 1.7s1-.76 1-1.7V4.005a2.788 2.788 0 0 0-.043-.491L9.8 6.75a.971.971 0 0 0 1.42 0 1.093 1.093 0 0 0 0-1.491" fill="#fc5b62"/></g></g></svg>