<svg xmlns="http://www.w3.org/2000/svg" viewBox="0 0 11.3 13" xml:space="preserve"><path d="M4.2.7c-.8.4-1.4.8-1.4.8l1.9 1s.2-.1.5-.2l.4-.3.5.2.5.2.8-.3c1.2-.5 1.3-.6 1.3-.6L7.1.7C6.5.4 5.9.2 5.8.1 5.7 0 5.7 0 5.6 0S5 .3 4.2.7zM.8 2.5l-.8.4v3.6s.4-.2.9-.4l.9-.4V3.9l.4.2c.3.2.6.4 1 .5l.5.3.2-.1c.2-.1.3-.1.5-.2.1-.1.4-.2.6-.3.2-.1.5-.2.5-.2s-.5-.3-1.9-1c-1.1-.5-1.9-1-2-1l-.8.4zm7.9.1c-.5.2-1 .5-1 .5s.3.2.7.4c.4.2.7.4.7.4s-.3.2-.7.3c-.4.2-1.4.6-2.2 1L3.3 6.5c-.6.3-1.3.6-1.3.6C.5 7.7.1 7.9.1 8 0 8 0 8.2 0 9.1v1.1l.7.4.7.4 1-.5c.5-.2 1-.5 1-.5s-.1-.1-.2-.1c-.1-.2-.4-.3-.6-.4-.1-.1-.3-.2-.4-.2 0 0-.1 0-.1-.1l1-.5c1-.5 1.8-.8 3.6-1.6.8-.3 1.5-.7 2.3-1 .7-.3 1.5-.7 1.7-.8l.5-.2V2.9l-.7-.4c-.4-.2-.7-.4-.8-.4 0 .1-.4.3-1 .5zM11 6.5c-.1.1-.3.2-.5.2-.1.1-.4.2-.6.3l-.3.2v1.9s-.7-.4-1.4-.7c-.6-.3-.6-.3-.8-.2 0 0-.4.2-.9.4-.4.1-.7.3-.8.3 0 0 .8.5 1.9 1l1.9 1 .8-.4c.5-.2.8-.4.9-.5V6.4s-.1.1-.2.1zm-4.5 4.2c-.1.1-.3.1-.4.2-.4.2-.3.2-.9-.1-.3-.2-.5-.2-.6-.2 0 0-.5.2-.9.4-.5.2-.8.4-.9.4-.2 0 .1.2 1.4.8l1.4.8.6-.3c.3-.2 1-.5 1.5-.7.5-.2.9-.4.9-.4s-.4-.2-.9-.5l-.9-.5-.3.1z" fill-rule="evenodd" clip-rule="evenodd" fill="#fc5b62"/></svg>