<svg version="1.1" id="Layer_1" xmlns="http://www.w3.org/2000/svg" x="0" y="0" viewBox="0 0 11 13.1" xml:space="preserve"><style>.st0{fill-rule:evenodd;clip-rule:evenodd;fill:#fc5b62}</style><path class="st0" d="M5.5 9.8c.3-1.1.6-2.2 1.7-2.8l-.5-.3c-.1 0-.2-.1-.2-.3 0-1-.2-1.5-.6-1.8-.1 0-.3-.1-.4-.1-.1 0-.3.1-.4.2-.4.3-.7.7-.6 1.7 0 .1-.1.2-.2.3l-.5.3c1 .6 1.3 1.7 1.7 2.8zm-.8-5.7c.3-.2.5-.3.8-.3.3 0 .5.1.7.3C7.5 3.5 9.3 1.9 9.7.6c-.2.4-.7.8-1 .7-.2-.1-.3-.2-.4-.3C8 .7 7.6.5 7.2.4 6.7.1 6.1 0 5.5 0c-.6 0-1.2.1-1.8.4-.3.1-.7.3-1 .6-.1.1-.2.2-.4.3-.3.1-.8-.3-1.1-.7.4 1.3 2.3 2.9 3.5 3.5zm-1.8.2c0 .1.1.2.2.3.1.1.2.1.4.2.3.1.6 0 .9-.1-.4-.2-.9-.5-1.5-.9-.1.2-.1.4 0 .5zm4.6.5c.1 0 .3-.1.4-.2.1-.1.2-.2.2-.3.1-.1 0-.3-.1-.5-.5.4-1 .7-1.4.9.3.1.6.2.9.1z"/><path class="st0" d="M9.9 6.4V4.6c0-.7-.2-1.4-.5-2l-.1-.2c-.2.3-.4.6-.7.9l.1.2c.2.4.2.7.1 1.1-.1.2-.3.4-.5.6l-.6.3c-.2 0-.3.1-.5 0 0 .2.1.4.1.7l1.4.8-1.1.6c-.1 0-.2.1-.2.2-1 .8-1.5 3.2-1.9 4.4-.4-1.2-.9-3.6-1.8-4.4-.1-.1-.2-.1-.3-.2L2.3 7l1.4-.8c0-.2 0-.4.1-.7h-.5c-.2-.1-.5-.2-.7-.3-.2-.2-.3-.4-.4-.6-.1-.4-.1-.8.1-1.1l.1-.2c-.3-.3-.5-.6-.7-.9l-.1.2c-.3.6-.5 1.3-.5 2v1.8c0 1.5-.3 3-1.1 4.3l1.5-1.2 1.1 1.7 1.1-1.1L5.5 13l1.8-2.9 1.1 1.1 1.1-1.7 1.5 1.2c-.7-1.4-1.1-2.9-1.1-4.3z"/></svg>