<svg xmlns="http://www.w3.org/2000/svg" width="15.803" height="13.037" viewBox="0.001 0 15.803 13.037"><path d="M15.773.28c-.058-.165-.124-.21-.23-.25-.232-.088-.623.044-.623.044S1.073 5.051.283 5.602c-.17.119-.227.187-.255.268-.137.393.288.566.288.566l3.569 1.163s.134.019.181-.011c.811-.513 8.168-5.158 8.592-5.314.068-.02.118.002.104.049-.17.596-6.559 6.275-6.559 6.275s-.024.03-.04.066l-.008-.005-.334 3.54s-.139 1.085.946 0a30.418 30.418 0 0 1 1.875-1.717c1.228.847 2.549 1.785 3.118 2.275.287.246.525.286.723.279.541-.02.692-.615.692-.615S15.698 2.266 15.783.905c.009-.133.019-.218.021-.31a1.152 1.152 0 0 0-.031-.315" fill="#fc5b62" fill-rule="evenodd" data-name="Path 6650"/></svg>